<svg fill="none" height="220" viewBox="0 0 220 220" width="220" xmlns="http://www.w3.org/2000/svg" xmlns:xlink="http://www.w3.org/1999/xlink"><clipPath id="a"><path d="m0 0h220v220h-220z"/></clipPath><g clip-path="url(#a)"><path d="m188.207 110.26c0 5.665-.599 11.191-1.741 16.515-3.279 15.344-11.038 29.027-21.847 39.614-5.218 5.116-11.154 9.514-17.638 13.019-6.604 3.578-13.774 6.236-21.345 7.806-5.172 1.068-10.528 1.63-16.013 1.63-1.317 0-2.625-.032-3.923-.097-14.8155-.727-28.5484-5.558-40.0891-13.382-3.6105-2.441-7.0092-5.181-10.1546-8.175-3.4585-3.288-6.6131-6.889-9.4269-10.758-9.3901-12.913-14.9487-28.801-14.9901-45.978 0-.364.0046-.723.0046-1.087.0046-.3.0138-.599.0184-.894.0046-.262.0092-.525.0184-.787.5665-17.629 6.9448-33.7934 17.2743-46.6374 1.9895-2.473 4.1217-4.8217 6.3921-7.0322 10.0026-9.7632 22.6026-16.8829 36.667-20.2171 3.9513-.9395 8.0177-1.575 12.1719-1.8927 1.994-.152 4.006-.2303 6.037-.2303 13.567 0 26.328 3.4355 37.464 9.496 3.385 1.8329 6.618 3.9099 9.68 6.2079 2.966 2.2243 5.766 4.6559 8.382 7.2717 1.28 1.2802 2.519 2.6019 3.702 3.9697 5.674 6.4934 10.298 13.9263 13.595 22.0407 3.716 9.1368 5.761 19.1302 5.761 29.5977z" fill="#f9911e"/><path d="m183.772 84.1669c-12.678 16.9061-28.446 35.0781-46.49 53.1171-18.204 18.209-36.547 34.102-53.5863 46.84-.1013.078-.2072.152-.3085.23-5.3605-1.897-10.4493-4.357-15.1974-7.313.1014-.051.1981-.106.2994-.161h.0046c.0184-.009.0414-.028.0599-.037 17.2006-9.413 38.9743-26.291 60.4853-47.803 21.299-21.299 38.053-42.8514 47.522-59.9691 2.27 3.6704 4.241 7.548 5.885 11.5914.47 1.1559.912 2.3211 1.326 3.5046z" fill="#f9a24b"/><g fill="#fff"><path d="m146.459 52.3985c-.418 0-.84-.1137-1.22-.3518-2.718-1.7026-5.58-3.2209-8.507-4.5127-1.163-.5135-1.69-1.8729-1.177-3.0362.513-1.1628 1.873-1.6901 3.037-1.1767 3.128 1.3807 6.187 3.0036 9.091 4.8231 1.078.6751 1.404 2.0963.729 3.174-.437.6976-1.186 1.0803-1.953 1.0803z"/><path d="m157.096 161.885c-.615 0-1.228-.245-1.681-.729-.869-.929-.821-2.386.108-3.255 13.528-12.657 21.287-30.505 21.287-48.969 0-18.5706-7.447-35.855-20.969-48.6705-.923-.8749-.962-2.332-.087-3.2554.874-.9229 2.332-.962 3.255-.0875 14.449 13.6937 22.406 32.1654 22.406 52.0124 0 19.734-8.29 38.809-22.746 52.332-.444.416-1.009.622-1.573.622z"/><path d="m147.411 169.466c-.754 0-1.493-.37-1.934-1.049-.692-1.066-.389-2.493.678-3.185 1.173-.761 2.339-1.571 3.465-2.407 1.022-.758 2.463-.544 3.221.477.759 1.022.545 2.463-.477 3.221-1.203.893-2.448 1.758-3.701 2.572-.388.251-.823.371-1.252.371z"/></g><path d="m165.149 54.6519c-2.616-2.6158-5.416-5.0474-8.382-7.2717-3.062-2.298-6.295-4.375-9.68-6.2079.152.2763.336.5296.562.7553 4.881 4.8723 2.33 16.3071-5.794 31.1729-.009.0184-.027.0414-.036.0599-.093.1703-.189.3407-.286.5157-9.468 17.1177-26.222 38.6699-47.5215 59.9699-3.7413 3.741-7.49 7.34-11.2212 10.784-3.7777 3.487-9.8709 2.277-12.0151-2.395-4.5697-9.961-7.1197-21.039-7.1197-32.715 0-21.2023 8.4-40.4476 22.0499-54.5811 7.5204-7.7875 16.6346-14.0276 26.8166-18.1907 4.246-1.7339 8.679-3.103 13.257-4.0789-5.309-1.132-10.814-1.7329-16.461-1.7329-10.5185 0-20.5487 2.0677-29.7177 5.8118-10.1822 4.1631-19.296 10.4032-26.8164 18.1907-13.6499 14.1335-22.0499 33.3788-22.0499 54.5811 0 22.745 9.6683 43.227 25.1147 57.577-.1303.097-.2625.197-.3928.293 3.1454 2.994 6.544 5.734 10.1545 8.175.1631-.135.3266-.273.4896-.408 5.2665 3.476 10.9738 6.338 17.0233 8.475 8.1927 2.897 17.0117 4.472 26.1947 4.472 5.644 0 11.148-.599 16.456-1.73-3.326-.709-6.574-1.626-9.729-2.742-9.192-3.247-17.6014-8.16-24.8593-14.373-.391-.334-.7783-.672-1.1624-1.014-4.2106-3.749-4.2156-10.321-.1096-14.184 4.1097-3.866 8.2287-7.859 12.3413-11.972 18.043-18.039 33.812-36.211 46.49-53.1173.115-.1566.235-.3132.35-.4698 7.847-10.4953 14.497-20.5025 19.756-29.6808-1.183-1.3673-2.422-2.689-3.702-3.9692z" fill="#000" opacity=".25"/><path d="m214.135 5.86385c-10.302-10.29733-41.047 2.51447-77.829 30.01235l-.331.3316c5.337 1.8928 10.407 4.352 15.137 7.3039l.396-.396c14.866-8.1283 26.301-10.6704 31.168-5.7934 4.882 4.8723 2.331 16.3072-5.793 31.1729-.009.0184-.028.0415-.037.0599-.092.1704-.189.3408-.285.5158-9.469 17.1177-26.223 38.6701-47.522 59.9691-21.511 21.511-43.2847 38.39-60.4853 47.803-.0184.009-.0415.027-.0599.037h-.0046c-.1013.055-.198.11-.2993.161-3.6336 1.976-7.0599 3.62-10.2329 4.891-9.6756 3.891-16.9934 4.393-20.6361.746-4.8401-4.836-2.3625-16.128 5.6138-30.832-2.9612-4.739-5.4342-9.819-7.3408-15.166-27.30447 36.621-39.99193 67.191-29.72683 77.456 7.97633 7.981 28.21633 2.091 54.03333-13.751h.0046c7.4191-4.55 15.2987-9.924 23.4822-16.031.1013-.078.2072-.152.3085-.23 17.0393-12.738 35.3823-28.631 53.5863-46.84 18.044-18.039 33.812-36.211 46.49-53.1171.115-.1566.235-.3132.35-.4698 27.498-36.7867 40.315-67.5313 30.013-77.83325z" fill="#f7db9c"/><path d="m109.998 191.008c-9.315 0-18.449-1.568-27.146-4.661l1.5427-4.339c8.2015 2.916 16.8153 4.394 25.6033 4.394 42.129 0 76.404-34.274 76.404-76.403 0-8.785-1.479-17.3976-4.395-25.5986l-.133-.3744v-.3974l2.309-.0023 2.163-.7691c3.093 8.6979 4.661 17.8298 4.661 27.1418 0 44.669-36.341 81.009-81.009 81.009z" fill="#333"/><path d="m16.1694 220.001c-5.1192 0-9.10731-1.412-11.93217-4.238-5.7538-5.753-5.64742-16.337.31638-31.456 5.43373-13.776 15.62749-30.851 29.47869-49.381l3.6888 2.758c-13.6099 18.206-23.5973 34.912-28.88323 48.313-5.08051 12.881-5.55807 22.296-1.34427 26.51 4.2143 4.214 13.6292 3.737 26.5101-1.344 13.4008-5.286 30.1068-15.274 48.3127-28.884 17.4069-13.012 35.8516-29.134 53.3396-46.622 17.487-17.487 33.609-35.9316 46.622-53.3394 13.61-18.206 23.598-34.9124 28.884-48.3132 5.081-12.8814 5.558-22.2963 1.344-26.51013-4.214-4.21381-13.628-3.73716-26.51 1.34427-13.401 5.28546-30.107 15.27326-48.313 28.88316l-2.758-3.6883c18.53-13.8517 35.605-24.04493 49.382-29.47866 15.119-5.96334 25.702-6.07018 31.456-.31684 5.753 5.75333 5.647 16.3371-.317 31.4566-5.433 13.7761-15.627 30.8515-29.478 49.3807-13.144 17.5818-29.415 36.1988-47.055 53.8388-17.642 17.641-36.258 33.912-53.8385 47.054-18.5292 13.851-35.605 24.045-49.3811 29.479-7.6954 3.035-14.2174 4.553-19.524 4.554zm28.3403-32.564c-3.7671.001-6.7279-1.039-8.8182-3.13-5.5488-5.549-3.6786-17.273 5.408-33.905l4.0411 2.208c-7.6622 14.024-9.9773 24.656-6.1932 28.44 3.7934 3.792 14.4223 1.478 28.4347-6.192l.5204-.283c17.5367-9.686 39.1925-26.846 59.5085-47.162 20.468-20.468 37.738-42.3024 47.391-59.9147l.051-.0939c7.671-14.0377 9.985-24.6694 6.196-28.4545-3.789-3.7933-14.419-1.4782-28.435 6.1872l-2.21-4.0407c16.626-9.0921 28.35-10.9609 33.902-5.4028 5.55 5.5451 3.687 17.2595-5.389 33.8766l-.05.0921c-9.849 17.9881-27.417 40.2237-48.2 61.0067-20.787 20.787-43.0228 38.353-61.0067 48.195l-.041.022c-.0382.021-.0741.039-.1068.056l-.0093.004c-10.3286 5.645-18.7617 8.491-24.9935 8.491z" fill="#333"/><path d="m16.1966 209.388c-2.1327 0-3.762-.406-4.4703-1.115-.1533-.153-3.68417-3.943 2.6803-20.08 3.453-8.754 9.0313-19.03 16.4094-30.283-5.8436 14.074-5.6368 24.351.642 30.63 2.2353 2.235 6.3179 4.9 13.0701 4.9 4.8986 0 10.7597-1.416 17.5041-4.223-19.5714 12.823-36.0738 20.171-45.8333 20.171-.0013 0-.0013 0-.0023 0zm172.9944-147.3088c5.84-14.0681 5.629-24.3447-.655-30.6226-2.229-2.2312-6.311-4.8976-13.065-4.8976-4.893 0-10.75 1.4142-17.489 4.2156 19.565-12.8178 36.063-20.1622 45.821-20.1622 2.132 0 3.761.4061 4.469 1.1144.154.1534 3.685 3.9435-2.679 20.0803-3.452 8.7509-9.029 19.0238-16.402 30.2721z" fill="#ddbe7f"/><path d="m68.6853 178.303-1.9857-.959c-10.447-6.505-19.3987-15.459-25.8889-25.894-3.0224-4.859-5.5263-10.058-7.4425-15.451-3.0699-8.621-4.6269-17.678-4.6269-26.92 0-44.2974 36.0383-80.3358 80.3357-80.3358 9.246 0 18.305 1.5566 26.927 4.6274 5.377 1.9125 10.574 4.4164 15.444 7.4411 10.447 6.498 19.402 15.4539 25.895 25.9004l-2.715 4.5753-1.196-2.1442c-6.123-9.8497-14.566-18.2939-24.416-24.4202-4.59-2.8511-9.488-5.2109-14.557-7.0138-8.125-2.8935-16.664-4.3607-25.382-4.3607-41.7585 0-75.7305 33.9724-75.7305 75.7305 0 8.714 1.4673 17.252 4.3603 25.377 1.8066 5.083 4.1668 9.983 7.0147 14.562 6.0964 9.802 14.4973 18.219 24.3019 24.348l1.6362.776z" fill="#333"/></g></svg>